<svg id="Layer_1" data-name="Layer 1" xmlns="http://www.w3.org/2000/svg" viewBox="0 0 1349.67 220.53"><defs><style>.cls-1{fill:#404041;}.cls-2{fill:#a5aed8;}.cls-3{fill:#707ab9;}.cls-4{fill:#3e499b;}.cls-5{fill:#282161;}</style></defs><path class="cls-1" d="M335.69,115a3,3,0,0,1,2.84-2.85h9.89a2.86,2.86,0,0,1,2.86,2.85v41.82h54.85V115a2.85,2.85,0,0,1,2.85-2.85h9.89a3,3,0,0,1,2.84,2.85v99.22a3,3,0,0,1-2.84,2.86H409a2.86,2.86,0,0,1-2.85-2.86V170.87H351.28v43.31a2.87,2.87,0,0,1-2.86,2.86h-9.89a3,3,0,0,1-2.84-2.86Z" transform="translate(-56.33 -41.37)"/><path class="cls-1" d="M464.42,115a3,3,0,0,1,2.85-2.85h10a2.85,2.85,0,0,1,2.85,2.85v61.91c0,15,9.6,26.68,24.88,26.68,15.44,0,25.18-11.55,25.18-26.38V115a2.85,2.85,0,0,1,2.84-2.85h10.05A3,3,0,0,1,546,115v63c0,22.78-17.23,40.61-40.91,40.61s-40.62-17.83-40.62-40.61Z" transform="translate(-56.33 -41.37)"/><path class="cls-1" d="M600,112.87a3,3,0,0,1,2.71-2.25h2.39a3,3,0,0,1,2.55,1.65L639,188.85h.6l31.17-76.58a2.84,2.84,0,0,1,2.55-1.65h2.4a3,3,0,0,1,2.69,2.25l18.44,100.72c.45,2.09-.6,3.44-2.7,3.44h-9.74a3.12,3.12,0,0,1-2.85-2.1l-11.09-67H670l-27,68.94a2.54,2.54,0,0,1-2.55,1.65h-2.69a2.71,2.71,0,0,1-2.56-1.65l-27.13-68.94h-.59l-10.79,67A2.93,2.93,0,0,1,594,217H584.3c-2.1,0-3.14-1.35-2.84-3.44Z" transform="translate(-56.33 -41.37)"/><path class="cls-1" d="M719.78,213.14l46-100.88a3.5,3.5,0,0,1,2.54-1.64h1.51a3.51,3.51,0,0,1,2.55,1.64L818.1,213.14a2.65,2.65,0,0,1-2.55,3.9h-9.44a3.48,3.48,0,0,1-3.44-2.25l-9.3-20.53h-49c-3,6.89-6.14,13.63-9.15,20.53a3.77,3.77,0,0,1-3.44,2.25h-9.44a2.65,2.65,0,0,1-2.55-3.9m67.9-31.78-18.44-41.07h-.75l-18.28,41.07Z" transform="translate(-56.33 -41.37)"/><path class="cls-1" d="M848.06,113.32a2.82,2.82,0,0,1,2.85-2.7h3.75l65.05,75.24h.14V115a2.86,2.86,0,0,1,2.86-2.86h9.59a3,3,0,0,1,2.84,2.86V215.84a2.81,2.81,0,0,1-2.84,2.69h-3.9l-65-77.34h-.16v73a2.84,2.84,0,0,1-2.84,2.86h-9.45a3,3,0,0,1-2.85-2.86Z" transform="translate(-56.33 -41.37)"/><path class="cls-1" d="M980.54,114.06a2,2,0,0,1,2-2h60.11a2,2,0,0,1,1.94,2v2.55a2,2,0,0,1-1.94,2H987.73v41.37h47.52a2,2,0,0,1,2,1.95v2.55a2,2,0,0,1-2,1.95H987.73v44.36h54.87a2,2,0,0,1,1.94,1.95v2.4a2,2,0,0,1-1.94,1.94H982.49a2,2,0,0,1-2-1.94Z" transform="translate(-56.33 -41.37)"/><path class="cls-1" d="M1101,118.56H1072.4c-1.5,0-1.94-.9-1.94-2.24v-2.25a1.89,1.89,0,0,1,1.94-1.95h64.45a1.89,1.89,0,0,1,2,1.95v2.54a1.9,1.9,0,0,1-2,2h-28.77v96.53c0,1-.9,1.94-2.41,1.94H1103a2,2,0,0,1-2-1.94Z" transform="translate(-56.33 -41.37)"/><path class="cls-1" d="M1170.86,114.06a2,2,0,0,1,2-2h3.3a2,2,0,0,1,2,2v101A2,2,0,0,1,1176,217h-3.15a2,2,0,0,1-2-1.94Z" transform="translate(-56.33 -41.37)"/><path class="cls-1" d="M1271.58,110.62c15.29,0,26.68,5.1,36.42,13.94a1.91,1.91,0,0,1,.15,2.7l-2.39,2.55c-.9.89-1.66.74-2.55-.15a46.82,46.82,0,0,0-31.63-12.3c-26.24,0-46.77,21.43-46.77,47.37a46.79,46.79,0,0,0,46.77,47.06c12.88,0,22.63-5.1,31.63-12.59a1.88,1.88,0,0,1,2.4-.3l2.54,2.55a1.72,1.72,0,0,1,0,2.55,51.78,51.78,0,0,1-36.57,14.53c-30,0-54.26-23.68-54.26-53.8a54.12,54.12,0,0,1,54.26-54.11" transform="translate(-56.33 -41.37)"/><path class="cls-1" d="M1341.1,203.1l1.35-1.8c1-1.2,2.1-1.65,3.3-.6,1.5,1.34,12.59,11.54,27.73,11.54,13.64,0,25.18-9.14,25.18-20.09,0-13.33-10.94-19.33-29.08-25.48-17.39-6.14-28.92-12.29-28.92-29.53,0-11.23,9-26.52,32.36-26.52a49.24,49.24,0,0,1,25.79,7.64,2.16,2.16,0,0,1,.59,3.15,12.75,12.75,0,0,0-1.19,2c-.9,1.2-1.8,1.64-3.3.75-.45-.3-10.49-7-22-7-18.43,0-25.34,11.4-25.34,19.94,0,12.74,9.75,18.28,24.89,23.23,20.53,7,33.57,14.24,33.57,31.63,0,15-15.44,26.67-32.67,26.67-17.84,0-29.83-10.49-31.78-12.29-.89-.75-1.65-1.49-.45-3.14" transform="translate(-56.33 -41.37)"/><path class="cls-2" d="M166.24,41.37A109.61,109.61,0,0,0,100.3,63.42a103.64,103.64,0,1,1,0,176.44A110.22,110.22,0,1,0,166.24,41.37" transform="translate(-56.33 -41.37)"/><path class="cls-3" d="M249.87,151c0,56.33-45.66,100.68-102,100.68a100.71,100.71,0,0,1-30.53-4.9,96.86,96.86,0,0,0,114-95.78,96.67,96.67,0,0,0-97-96.83,71.64,71.64,0,0,0-17.59,2.32c9.65-3.06,17.76-6.15,31.15-6.15,56.32,0,102,44.34,102,100.66" transform="translate(-56.33 -41.37)"/><path class="cls-4" d="M179.86,88.11c12.31,2.12,20.84,7.27,29.73,15.29-16.4-27.46-46.6-46.88-80.91-46.83-6.85,0-15.6,1.62-20.24,3.76,28.48-.26,56.16,11.43,71.42,27.78" transform="translate(-56.33 -41.37)"/><path class="cls-4" d="M179.86,214.83c12.31-2.12,20.84-7.26,29.73-15.28-16.4,27.45-46.6,46.88-80.91,46.83-6.85,0-15.6-1.63-20.24-3.77,28.48.27,56.16-11.43,71.42-27.78" transform="translate(-56.33 -41.37)"/><path class="cls-5" d="M166.6,86.69c.71,0,1.39.08,2.09.1a88.72,88.72,0,0,0-61.16-24.43c-2.06,0-4.09.18-6.12.32a110,110,0,0,0,0,177.58c2,.15,4.06.31,6.12.31a88.71,88.71,0,0,0,61.16-24.42c-.7,0-1.38.1-2.09.1a64.78,64.78,0,0,1,0-129.56" transform="translate(-56.33 -41.37)"/></svg>